<svg width="49" height="48" viewBox="0 0 49 48" fill="none" xmlns="http://www.w3.org/2000/svg">
<path d="M48.5 24C48.5 10.7438 37.7562 0 24.5 0C11.2438 0 0.5 10.7438 0.5 24C0.5 35.9813 9.275 45.9094 20.75 47.7094V30.9375H14.6562V24H20.75V18.7125C20.75 12.6984 24.3313 9.375 29.8156 9.375C32.4406 9.375 35.1875 9.84375 35.1875 9.84375V15.75H32.1594C29.1781 15.75 28.25 17.6016 28.25 19.5V24H34.9062L33.8422 30.9375H28.25V47.7094C39.725 45.9094 48.5 35.9813 48.5 24Z" fill="#1877F2"/>
<path d="M33.8423 30.9375L34.9062 24H28.25V19.5C28.25 17.6016 29.1782 15.75 32.1595 15.75H35.1875V9.84375C35.1875 9.84375 32.4407 9.375 29.8156 9.375C24.3314 9.375 20.7501 12.6984 20.7501 18.7125V24H14.6562V30.9375H20.7501V47.7094C21.9735 47.9016 23.225 48 24.5 48C25.775 48 27.0266 47.9016 28.25 47.7094V30.9375H33.8423Z" fill="white"/>
</svg>
