<svg width="49" height="48" viewBox="0 0 49 48" fill="none" xmlns="http://www.w3.org/2000/svg">
<path d="M0.5 24C0.5 10.7452 11.2452 0 24.5 0C37.7548 0 48.5 10.7452 48.5 24C48.5 37.2548 37.7548 48 24.5 48C11.2452 48 0.5 37.2548 0.5 24Z" fill="white"/>
<path d="M24.4997 17.6229C26.4525 17.6229 27.7699 18.4665 28.521 19.1713L31.4561 16.3056C29.6534 14.63 27.3077 13.6016 24.4997 13.6016C20.4321 13.6016 16.9192 15.9358 15.209 19.3331L18.5717 21.9447C19.4152 19.4371 21.7494 17.6229 24.4997 17.6229Z" fill="#EA4335"/>
<path d="M34.484 24.2356C34.484 23.3805 34.4147 22.7565 34.2644 22.1094H24.5V25.9689H30.2316C30.116 26.928 29.492 28.3725 28.1053 29.3432L31.3871 31.8854C33.3516 30.0712 34.484 27.4018 34.484 24.2356Z" fill="#4285F4"/>
<path d="M18.5832 26.0613C18.3636 25.4142 18.2365 24.7208 18.2365 24.0044C18.2365 23.2879 18.3636 22.5946 18.5716 21.9475L15.2089 19.3359C14.5041 20.7457 14.0996 22.3288 14.0996 24.0044C14.0996 25.6799 14.5041 27.263 15.2089 28.6728L18.5832 26.0613Z" fill="#FBBC05"/>
<path d="M24.4998 34.3978C27.3078 34.3978 29.6651 33.4734 31.3869 31.8787L28.1051 29.3365C27.2269 29.9489 26.0483 30.3765 24.4998 30.3765C21.7496 30.3765 19.4154 28.5622 18.5834 26.0547L15.2207 28.6662C16.9309 32.0636 20.4323 34.3978 24.4998 34.3978Z" fill="#34A853"/>
</svg>
