<svg width="48" height="48" viewBox="0 0 48 48" fill="none" xmlns="http://www.w3.org/2000/svg">
<path d="M0.5 8C0.5 3.58172 4.07587 0 8.48693 0H39.5131C43.9241 0 47.5 3.58172 47.5 8V40C47.5 44.4183 43.9241 48 39.5131 48H8.48693C4.07587 48 0.5 44.4183 0.5 40V8Z" fill="#0077B5"/>
<path d="M33.5845 41.2562H40.6619V26.9589C40.6619 19.8978 36.3943 17.4894 32.4452 17.4894C28.7936 17.4894 26.313 19.919 25.6281 21.3421V18.1392H18.8217V41.2562H25.8991V28.7229C25.8991 25.3811 27.9577 23.7559 30.0578 23.7559C32.0441 23.7559 33.5845 24.9048 33.5845 28.6301V41.2562Z" fill="white"/>
<path d="M6.95117 10.7413C6.95117 13.1547 8.77796 14.9184 11.0314 14.9184C13.2851 14.9184 15.1119 13.1547 15.1119 10.7413C15.1119 8.32819 13.2851 6.5625 11.0314 6.5625C8.77796 6.5625 6.95117 8.32819 6.95117 10.7413Z" fill="white"/>
<path d="M7.49287 41.2383H14.5699V18.1213H7.49287V41.2383Z" fill="white"/>
</svg>
