<svg width="128" height="44" viewBox="0 0 128 44" fill="none" xmlns="http://www.w3.org/2000/svg">
<rect width="127" height="44" transform="translate(0.5)" fill="white"/>
<rect width="127" height="44" transform="translate(0.5)" fill="#080000"/>
<path d="M9.9082 15.6602C10.8197 15.6862 11.5749 15.7057 12.1738 15.7188C12.7858 15.7188 13.2806 15.7188 13.6582 15.7188H14.6934H20.5137C20.5397 15.9792 20.5592 16.2331 20.5723 16.4805C20.5983 16.7148 20.6113 16.9232 20.6113 17.1055C20.6113 17.3268 20.6048 17.5286 20.5918 17.7109C20.5788 17.8932 20.5592 18.0885 20.5332 18.2969C20.5072 18.4792 20.4811 18.6745 20.4551 18.8828C20.429 19.0911 20.3835 19.306 20.3184 19.5273C20.1361 18.8242 19.8887 18.2904 19.5762 17.9258C19.2767 17.5612 18.9707 17.2943 18.6582 17.125C18.2936 16.9297 17.9095 16.8255 17.5059 16.8125C16.972 16.8385 16.5553 16.8841 16.2559 16.9492C15.9564 17.0143 15.722 17.1055 15.5527 17.2227C15.3835 17.3398 15.2533 17.4766 15.1621 17.6328C15.084 17.776 14.9993 17.9388 14.9082 18.1211C14.8301 18.2773 14.7585 18.5182 14.6934 18.8438C14.6283 19.1172 14.5632 19.4883 14.498 19.957C14.446 20.4258 14.3874 21.0312 14.3223 21.7734C14.6738 21.6693 14.9538 21.5716 15.1621 21.4805C15.3835 21.3893 15.5592 21.3112 15.6895 21.2461C15.8327 21.168 15.9368 21.0964 16.002 21.0312C16.054 20.9531 16.1322 20.8099 16.2363 20.6016C16.3145 20.4193 16.4186 20.1719 16.5488 19.8594C16.6921 19.5469 16.8613 19.1172 17.0566 18.5703C17.0827 19.1693 17.0957 19.6706 17.0957 20.0742C17.0957 20.4648 17.1022 20.7839 17.1152 21.0312C17.1152 21.3177 17.1217 21.5456 17.1348 21.7148V22.457C17.1348 22.7305 17.1348 23.1016 17.1348 23.5703C17.1478 24.026 17.1673 24.6055 17.1934 25.3086C17.0371 24.8268 16.8939 24.4492 16.7637 24.1758C16.6465 23.8893 16.5423 23.6745 16.4512 23.5312C16.347 23.362 16.2559 23.2448 16.1777 23.1797C16.0866 23.1536 15.9629 23.1276 15.8066 23.1016C15.6634 23.0885 15.4811 23.082 15.2598 23.082C15.0514 23.082 14.7845 23.1146 14.459 23.1797C14.4199 23.8958 14.4134 24.4753 14.4395 24.918C14.4785 25.3477 14.5306 25.6797 14.5957 25.9141C14.6608 26.1875 14.7389 26.3828 14.8301 26.5C14.9473 26.6172 15.1816 26.7148 15.5332 26.793C15.8848 26.8581 16.2819 26.8841 16.7246 26.8711C17.1803 26.8451 17.6426 26.7669 18.1113 26.6367C18.5801 26.5065 18.9967 26.2917 19.3613 25.9922C19.6348 25.7448 19.9277 25.4323 20.2402 25.0547C20.5007 24.7292 20.7871 24.319 21.0996 23.8242C21.4251 23.3294 21.7441 22.7305 22.0566 22.0273C22.0046 22.6133 21.9655 23.1016 21.9395 23.4922C21.9264 23.8698 21.9069 24.1758 21.8809 24.4102C21.8548 24.6836 21.8353 24.8919 21.8223 25.0352C21.8223 25.1914 21.8027 25.4128 21.7637 25.6992C21.7376 25.9466 21.6921 26.2852 21.627 26.7148C21.5749 27.1315 21.5033 27.6654 21.4121 28.3164C20.8001 28.3294 20.2207 28.3424 19.6738 28.3555C19.127 28.3555 18.6452 28.362 18.2285 28.375C17.7337 28.388 17.278 28.401 16.8613 28.4141C16.4316 28.4141 15.9564 28.4336 15.4355 28.4727C14.9798 28.4987 14.4395 28.5378 13.8145 28.5898C13.2025 28.6419 12.5254 28.7135 11.7832 28.8047C11.8483 27.9193 11.8939 27.0859 11.9199 26.3047C11.959 25.5104 11.985 24.8138 11.998 24.2148C12.0111 23.5117 12.0111 22.8607 11.998 22.2617C12.0632 20.7643 12.0371 19.5534 11.9199 18.6289C11.8027 17.7044 11.666 17.112 11.5098 16.8516C11.4316 16.7604 11.321 16.6497 11.1777 16.5195C11.0605 16.4154 10.8978 16.2917 10.6895 16.1484C10.4811 16.0052 10.2207 15.8424 9.9082 15.6602ZM20.1621 14.9766C21.0345 15.0156 21.7116 15.0352 22.1934 15.0352H22.916C23.1243 15.0352 23.3848 15.0286 23.6973 15.0156C23.9577 15.0026 24.2897 14.9961 24.6934 14.9961C25.097 14.9831 25.5788 14.9635 26.1387 14.9375C25.8783 15.1198 25.6699 15.2956 25.5137 15.4648C25.3574 15.6341 25.2337 15.7839 25.1426 15.9141C25.0384 16.0703 24.9668 16.2135 24.9277 16.3438C24.8366 16.6823 24.7975 17.1445 24.8105 17.7305C24.8366 18.3034 24.8952 18.9284 24.9863 19.6055C25.0775 20.2695 25.1882 20.9466 25.3184 21.6367C25.4486 22.3268 25.5788 22.9518 25.709 23.5117C25.8522 24.0716 25.9759 24.5339 26.0801 24.8984C26.1973 25.25 26.2819 25.4258 26.334 25.4258C26.3861 25.4258 26.4837 25.237 26.627 24.8594C26.7832 24.4818 26.959 24.0065 27.1543 23.4336C27.3496 22.8477 27.5514 22.2161 27.7598 21.5391C27.9681 20.849 28.1569 20.1979 28.3262 19.5859C28.5085 18.9609 28.6582 18.4271 28.7754 17.9844C28.8926 17.5286 28.9512 17.2487 28.9512 17.1445C28.9382 17.0013 28.8926 16.8516 28.8145 16.6953C28.7493 16.5521 28.6322 16.3893 28.4629 16.207C28.3066 16.0117 28.0853 15.7904 27.7988 15.543C28.2025 15.5299 28.5475 15.5169 28.834 15.5039C29.1335 15.4909 29.3874 15.4844 29.5957 15.4844H30.2012H33.3262C33.0007 15.7057 32.7207 15.9206 32.4863 16.1289C32.265 16.3372 32.0827 16.5326 31.9395 16.7148C31.7702 16.9232 31.627 17.1185 31.5098 17.3008C31.3796 17.5742 31.1647 18.1667 30.8652 19.0781C30.735 19.4688 30.5853 19.944 30.416 20.5039C30.2467 21.0638 30.0449 21.7344 29.8105 22.5156C29.5762 23.2969 29.3158 24.2018 29.0293 25.2305C28.7428 26.2461 28.4173 27.4049 28.0527 28.707L25.3379 29.0586C25.0124 28.043 24.7259 27.1185 24.4785 26.2852C24.2441 25.4388 24.0358 24.7161 23.8535 24.1172C23.6452 23.4141 23.4694 22.7826 23.3262 22.2227C23.1309 21.5456 22.9616 20.862 22.8184 20.1719C22.6882 19.4688 22.571 18.8372 22.4668 18.2773C22.3757 17.7044 22.291 17.2292 22.2129 16.8516C22.1348 16.474 22.0501 16.2526 21.959 16.1875C21.8809 16.1224 21.7637 16.0378 21.6074 15.9336C21.4642 15.8424 21.2819 15.7253 21.0605 15.582C20.8262 15.4258 20.5267 15.224 20.1621 14.9766ZM30.8262 15.6602C31.7376 15.6862 32.4928 15.7057 33.0918 15.7188C33.7038 15.7188 34.1986 15.7188 34.5762 15.7188H35.6113H41.4316C41.4577 15.9792 41.4772 16.2331 41.4902 16.4805C41.5163 16.7148 41.5293 16.9232 41.5293 17.1055C41.5293 17.3268 41.5228 17.5286 41.5098 17.7109C41.4967 17.8932 41.4772 18.0885 41.4512 18.2969C41.4251 18.4792 41.3991 18.6745 41.373 18.8828C41.347 19.0911 41.3014 19.306 41.2363 19.5273C41.054 18.8242 40.8066 18.2904 40.4941 17.9258C40.1947 17.5612 39.8887 17.2943 39.5762 17.125C39.2116 16.9297 38.8275 16.8255 38.4238 16.8125C37.89 16.8385 37.4733 16.8841 37.1738 16.9492C36.8743 17.0143 36.64 17.1055 36.4707 17.2227C36.3014 17.3398 36.1712 17.4766 36.0801 17.6328C36.002 17.776 35.9173 17.9388 35.8262 18.1211C35.748 18.2773 35.6764 18.5182 35.6113 18.8438C35.5462 19.1172 35.4811 19.4883 35.416 19.957C35.3639 20.4258 35.3053 21.0312 35.2402 21.7734C35.5918 21.6693 35.8717 21.5716 36.0801 21.4805C36.3014 21.3893 36.4772 21.3112 36.6074 21.2461C36.7507 21.168 36.8548 21.0964 36.9199 21.0312C36.972 20.9531 37.0501 20.8099 37.1543 20.6016C37.2324 20.4193 37.3366 20.1719 37.4668 19.8594C37.61 19.5469 37.7793 19.1172 37.9746 18.5703C38.0007 19.1693 38.0137 19.6706 38.0137 20.0742C38.0137 20.4648 38.0202 20.7839 38.0332 21.0312C38.0332 21.3177 38.0397 21.5456 38.0527 21.7148V22.457C38.0527 22.7305 38.0527 23.1016 38.0527 23.5703C38.0658 24.026 38.0853 24.6055 38.1113 25.3086C37.9551 24.8268 37.8118 24.4492 37.6816 24.1758C37.5645 23.8893 37.4603 23.6745 37.3691 23.5312C37.265 23.362 37.1738 23.2448 37.0957 23.1797C37.0046 23.1536 36.8809 23.1276 36.7246 23.1016C36.5814 23.0885 36.3991 23.082 36.1777 23.082C35.9694 23.082 35.7025 23.1146 35.377 23.1797C35.3379 23.8958 35.3314 24.4753 35.3574 24.918C35.3965 25.3477 35.4486 25.6797 35.5137 25.9141C35.5788 26.1875 35.6569 26.3828 35.748 26.5C35.8652 26.6172 36.0996 26.7148 36.4512 26.793C36.8027 26.8581 37.1999 26.8841 37.6426 26.8711C38.0983 26.8451 38.5605 26.7669 39.0293 26.6367C39.498 26.5065 39.9147 26.2917 40.2793 25.9922C40.5527 25.7448 40.8457 25.4323 41.1582 25.0547C41.4186 24.7292 41.7051 24.319 42.0176 23.8242C42.3431 23.3294 42.6621 22.7305 42.9746 22.0273C42.9225 22.6133 42.8835 23.1016 42.8574 23.4922C42.8444 23.8698 42.8249 24.1758 42.7988 24.4102C42.7728 24.6836 42.7533 24.8919 42.7402 25.0352C42.7402 25.1914 42.7207 25.4128 42.6816 25.6992C42.6556 25.9466 42.61 26.2852 42.5449 26.7148C42.4928 27.1315 42.4212 27.6654 42.3301 28.3164C41.7181 28.3294 41.1387 28.3424 40.5918 28.3555C40.0449 28.3555 39.5632 28.362 39.1465 28.375C38.6517 28.388 38.196 28.401 37.7793 28.4141C37.3496 28.4141 36.8743 28.4336 36.3535 28.4727C35.8978 28.4987 35.3574 28.5378 34.7324 28.5898C34.1204 28.6419 33.4434 28.7135 32.7012 28.8047C32.7663 27.9193 32.8118 27.0859 32.8379 26.3047C32.877 25.5104 32.903 24.8138 32.916 24.2148C32.929 23.5117 32.929 22.8607 32.916 22.2617C32.9811 20.7643 32.9551 19.5534 32.8379 18.6289C32.7207 17.7044 32.584 17.112 32.4277 16.8516C32.3496 16.7604 32.2389 16.6497 32.0957 16.5195C31.9785 16.4154 31.8158 16.2917 31.6074 16.1484C31.3991 16.0052 31.1387 15.8424 30.8262 15.6602ZM42.6816 15.1523C43.2676 15.2565 43.7493 15.3281 44.127 15.3672C44.5046 15.4062 44.8105 15.4388 45.0449 15.4648C45.3184 15.4909 45.5332 15.4974 45.6895 15.4844H46.2754C46.4837 15.4844 46.7441 15.4844 47.0566 15.4844C47.3822 15.4714 47.7858 15.4648 48.2676 15.4648C48.541 16.1029 48.7884 16.6888 49.0098 17.2227C49.2441 17.7565 49.4395 18.2122 49.5957 18.5898C49.778 19.0456 49.9473 19.4557 50.1035 19.8203C50.2858 20.276 50.4811 20.7773 50.6895 21.3242C50.8978 21.8711 51.0866 22.3854 51.2559 22.8672C51.4382 23.349 51.5879 23.7461 51.7051 24.0586C51.8223 24.3711 51.8809 24.5143 51.8809 24.4883C51.8809 24.4753 51.8874 24.3451 51.9004 24.0977C51.9134 23.8372 51.9264 23.5182 51.9395 23.1406C51.9525 22.75 51.9655 22.3268 51.9785 21.8711C52.0046 21.4023 52.0176 20.9531 52.0176 20.5234C52.0306 20.0807 52.0371 19.6771 52.0371 19.3125C52.0371 18.9479 52.0241 18.6745 51.998 18.4922C51.959 18.2708 51.8809 18.0169 51.7637 17.7305C51.6595 17.4831 51.5163 17.1901 51.334 16.8516C51.1517 16.5 50.8978 16.1029 50.5723 15.6602C51.1061 15.6732 51.5423 15.6797 51.8809 15.6797C52.2194 15.6797 52.4928 15.6797 52.7012 15.6797C52.9355 15.6797 53.1178 15.6732 53.248 15.6602C53.4173 15.6602 53.6257 15.6471 53.873 15.6211C54.0944 15.5951 54.3678 15.5755 54.6934 15.5625C55.0319 15.5365 55.4486 15.5039 55.9434 15.4648C55.6569 15.7253 55.429 15.9727 55.2598 16.207C55.0905 16.4414 54.9538 16.6497 54.8496 16.832C54.7324 17.0404 54.6543 17.2357 54.6152 17.418C54.5632 17.6523 54.5176 18.0365 54.4785 18.5703C54.4525 19.0911 54.4199 19.6771 54.3809 20.3281C54.3548 20.9792 54.3288 21.6562 54.3027 22.3594C54.2767 23.0625 54.2507 23.707 54.2246 24.293C54.2246 24.7357 54.2116 25.2109 54.1855 25.7188C54.1595 26.1484 54.1335 26.6367 54.1074 27.1836C54.0814 27.7174 54.0488 28.2578 54.0098 28.8047L52.2715 28.8438C51.7637 27.9453 51.334 27.1771 50.9824 26.5391C50.6439 25.888 50.3639 25.3542 50.1426 24.9375C49.8952 24.4557 49.6868 24.0521 49.5176 23.7266C49.3743 23.4141 49.1855 23.056 48.9512 22.6523C48.7559 22.3138 48.5085 21.8971 48.209 21.4023C47.9225 20.9076 47.5775 20.3411 47.1738 19.7031C47.1348 20.6016 47.1152 21.3698 47.1152 22.0078C47.1283 22.6328 47.1478 23.1536 47.1738 23.5703C47.2129 24.0521 47.2585 24.4557 47.3105 24.7812C47.3757 25.0938 47.4668 25.4453 47.584 25.8359C47.6882 26.1745 47.8118 26.5716 47.9551 27.0273C48.1113 27.4831 48.3001 27.9974 48.5215 28.5703C47.7533 28.5312 47.1803 28.5117 46.8027 28.5117H46.2168C46.0345 28.5117 45.7871 28.5312 45.4746 28.5703C45.2142 28.5964 44.8561 28.6354 44.4004 28.6875C43.9577 28.7396 43.4043 28.8112 42.7402 28.9023C43.0527 28.5247 43.3001 28.1797 43.4824 27.8672C43.6777 27.5417 43.8275 27.2682 43.9316 27.0469C44.0618 26.7865 44.153 26.5586 44.2051 26.3633C44.2441 26.1549 44.2702 25.7969 44.2832 25.2891C44.2962 24.7682 44.2962 24.1823 44.2832 23.5312C44.2832 22.8672 44.2702 22.1706 44.2441 21.4414C44.2311 20.7122 44.2116 20.0352 44.1855 19.4102C44.1595 18.7852 44.127 18.2513 44.0879 17.8086C44.0618 17.3659 44.0423 17.0924 44.0293 16.9883C43.9902 16.819 43.9121 16.6367 43.7949 16.4414C43.6908 16.2721 43.554 16.0833 43.3848 15.875C43.2155 15.6536 42.9811 15.4128 42.6816 15.1523ZM55.2598 14.7422C56.1322 14.8464 56.8874 14.9245 57.5254 14.9766C58.1634 15.0156 58.6908 15.0482 59.1074 15.0742C59.5892 15.1003 59.9928 15.1068 60.3184 15.0938C60.6569 15.0807 61.1191 15.0482 61.7051 14.9961C62.1999 14.957 62.8509 14.9049 63.6582 14.8398C64.4655 14.7617 65.4746 14.6576 66.6855 14.5273C66.6986 14.8268 66.7051 15.1198 66.7051 15.4062C66.7181 15.6797 66.7311 15.9206 66.7441 16.1289C66.7572 16.3763 66.7637 16.6042 66.7637 16.8125C66.7637 17.0339 66.7507 17.3138 66.7246 17.6523C66.6986 17.9388 66.653 18.3034 66.5879 18.7461C66.5358 19.1758 66.4512 19.6901 66.334 20.2891C66.1517 19.5859 65.9759 19.0195 65.8066 18.5898C65.6374 18.1471 65.4811 17.7956 65.3379 17.5352C65.1816 17.2357 65.0254 17.0078 64.8691 16.8516C64.6999 16.7344 64.498 16.6367 64.2637 16.5586C64.0553 16.4935 63.7884 16.4414 63.4629 16.4023C63.1504 16.3633 62.7793 16.3698 62.3496 16.4219C62.2845 18.1406 62.2389 19.5339 62.2129 20.6016C62.1868 21.6693 62.1673 22.5026 62.1543 23.1016C62.1413 23.8177 62.1348 24.332 62.1348 24.6445C62.1478 25.0872 62.2194 25.5234 62.3496 25.9531C62.4538 26.3177 62.623 26.6953 62.8574 27.0859C63.0918 27.4766 63.4303 27.8216 63.873 28.1211H61.4902C61.2689 28.1211 60.9954 28.1341 60.6699 28.1602C60.3965 28.1862 60.0449 28.2122 59.6152 28.2383C59.1986 28.2643 58.7103 28.3099 58.1504 28.375C58.3457 28.0365 58.502 27.7305 58.6191 27.457C58.7363 27.1836 58.8275 26.9492 58.8926 26.7539C58.9707 26.5195 59.0293 26.3112 59.0684 26.1289C59.0814 25.8685 59.1139 25.3411 59.166 24.5469C59.179 24.2214 59.1921 23.8177 59.2051 23.3359C59.2311 22.8542 59.2572 22.2812 59.2832 21.6172C59.3223 20.9531 59.3548 20.1914 59.3809 19.332C59.4199 18.4596 59.459 17.4766 59.498 16.3828C59.2637 16.3177 59.0423 16.3242 58.834 16.4023C58.6257 16.4674 58.4434 16.5521 58.2871 16.6562C58.1048 16.7865 57.929 16.9427 57.7598 17.125C57.5905 17.3464 57.4017 17.6328 57.1934 17.9844C57.0111 18.2839 56.8027 18.681 56.5684 19.1758C56.334 19.6576 56.0671 20.2565 55.7676 20.9727C55.7025 20.2174 55.6569 19.599 55.6309 19.1172C55.6048 18.6224 55.5853 18.2383 55.5723 17.9648C55.5592 17.6393 55.5527 17.3984 55.5527 17.2422C55.5527 17.099 55.5397 16.9102 55.5137 16.6758C55.4876 16.4805 55.4551 16.2266 55.416 15.9141C55.377 15.5885 55.3249 15.1979 55.2598 14.7422ZM66.0801 14.9961C66.4967 15.0091 66.8613 15.0156 67.1738 15.0156C67.4863 15.0026 67.7402 14.9961 67.9355 14.9961H68.502C68.6452 14.9831 68.821 14.9766 69.0293 14.9766C69.2116 14.9766 69.4329 14.9766 69.6934 14.9766C69.9538 14.9766 70.2533 14.9831 70.5918 14.9961C70.696 15.3607 70.8132 15.7188 70.9434 16.0703C71.0866 16.4089 71.2103 16.7148 71.3145 16.9883C71.4447 17.3138 71.5749 17.6198 71.7051 17.9062C71.8353 18.1927 71.9915 18.5378 72.1738 18.9414C72.3301 19.2799 72.5189 19.6966 72.7402 20.1914C72.9616 20.6732 73.222 21.2266 73.5215 21.8516C73.6647 21.4479 73.7949 21.0768 73.9121 20.7383C74.0423 20.3997 74.153 20.1068 74.2441 19.8594C74.3483 19.5729 74.4329 19.3125 74.498 19.0781C74.5632 18.8438 74.6348 18.5573 74.7129 18.2188C74.778 17.9323 74.8496 17.5872 74.9277 17.1836C75.0189 16.7799 75.11 16.3112 75.2012 15.7773C75.5788 15.7773 75.9173 15.7773 76.2168 15.7773C76.5163 15.7773 76.7767 15.7708 76.998 15.7578C77.2454 15.7578 77.4668 15.7513 77.6621 15.7383C77.8704 15.7383 78.1504 15.7253 78.502 15.6992C78.8014 15.6732 79.1986 15.6536 79.6934 15.6406C80.2012 15.6146 80.8262 15.582 81.5684 15.543C81.2949 15.7383 81.0736 15.9336 80.9043 16.1289C80.748 16.3112 80.6243 16.474 80.5332 16.6172C80.429 16.7865 80.3639 16.9492 80.3379 17.1055C80.3118 17.2357 80.2858 17.5352 80.2598 18.0039C80.2467 18.4727 80.2272 19.0326 80.2012 19.6836C80.1882 20.3216 80.1751 21.0052 80.1621 21.7344C80.1621 22.4635 80.1686 23.1536 80.1816 23.8047C80.1947 24.4557 80.2142 25.0221 80.2402 25.5039C80.2793 25.9727 80.3314 26.2721 80.3965 26.4023C80.4876 26.5586 80.6113 26.7409 80.7676 26.9492C80.9108 27.1315 81.0931 27.3398 81.3145 27.5742C81.5488 27.8086 81.8548 28.069 82.2324 28.3555C81.6335 28.3815 81.1322 28.401 80.7285 28.4141C80.3379 28.4271 80.0124 28.4401 79.752 28.4531C79.4525 28.4661 79.2116 28.4727 79.0293 28.4727C78.834 28.4727 78.5671 28.4792 78.2285 28.4922C77.929 28.5052 77.5319 28.5247 77.0371 28.5508C76.5423 28.5638 75.9043 28.5898 75.123 28.6289C75.3053 28.4206 75.4746 28.2122 75.6309 28.0039C75.7871 27.7956 75.9173 27.6068 76.0215 27.4375C76.1517 27.2422 76.2624 27.0534 76.3535 26.8711C76.4447 26.6237 76.5163 26.1745 76.5684 25.5234C76.6204 24.9635 76.6595 24.1628 76.6855 23.1211C76.7116 22.0664 76.7116 20.6536 76.6855 18.8828C76.4382 19.2865 76.2168 19.6901 76.0215 20.0938C75.8392 20.4844 75.6764 20.8424 75.5332 21.168C75.377 21.5456 75.2337 21.9102 75.1035 22.2617C74.9733 22.6263 74.8366 23.0299 74.6934 23.4727C74.5632 23.8503 74.4069 24.2995 74.2246 24.8203C74.0553 25.3411 73.86 25.9141 73.6387 26.5391L72.8965 26.5781C72.7923 26.0573 72.6882 25.5885 72.584 25.1719C72.4798 24.7422 72.3757 24.3776 72.2715 24.0781C72.1543 23.7266 72.0371 23.4141 71.9199 23.1406C71.7897 22.8672 71.6465 22.5612 71.4902 22.2227C71.347 21.9362 71.1712 21.5977 70.9629 21.207C70.7676 20.8164 70.5397 20.3802 70.2793 19.8984C70.1491 21.2266 70.071 22.3073 70.0449 23.1406C70.0189 23.9609 70.0189 24.599 70.0449 25.0547C70.071 25.6016 70.11 25.9987 70.1621 26.2461C70.2402 26.4674 70.3639 26.7148 70.5332 26.9883C70.6764 27.2227 70.8717 27.5026 71.1191 27.8281C71.3796 28.1406 71.7116 28.4922 72.1152 28.8828C71.8288 28.8828 71.5293 28.8828 71.2168 28.8828C70.9043 28.8828 70.6178 28.8893 70.3574 28.9023C70.0449 28.9154 69.7389 28.9219 69.4395 28.9219C69.127 28.9349 68.7624 28.9544 68.3457 28.9805C67.9811 29.0065 67.5449 29.0326 67.0371 29.0586C66.5293 29.0846 65.9434 29.1302 65.2793 29.1953C65.5658 29.013 65.8001 28.8372 65.9824 28.668C66.1647 28.4857 66.3079 28.3229 66.4121 28.1797C66.5423 28.0104 66.64 27.8411 66.7051 27.6719C66.7441 27.5677 66.7767 27.3398 66.8027 26.9883C66.8418 26.6367 66.8743 26.207 66.9004 25.6992C66.9395 25.1914 66.9655 24.625 66.9785 24C67.0046 23.375 67.0241 22.7435 67.0371 22.1055C67.0632 21.4544 67.0827 20.8229 67.0957 20.2109C67.1087 19.5859 67.1152 19.026 67.1152 18.5312C67.1283 18.0234 67.1348 17.6003 67.1348 17.2617C67.1348 16.9232 67.1348 16.7083 67.1348 16.6172C67.0957 16.4219 67.0371 16.2266 66.959 16.0312C66.8939 15.862 66.7897 15.6862 66.6465 15.5039C66.5033 15.3216 66.3145 15.1523 66.0801 14.9961ZM85.1035 15.7773C85.7546 15.8164 86.3014 15.849 86.7441 15.875C87.1999 15.888 87.5775 15.901 87.877 15.9141C88.2155 15.9271 88.502 15.9271 88.7363 15.9141C88.9707 15.901 89.2897 15.8685 89.6934 15.8164C90.0319 15.7773 90.4811 15.7188 91.041 15.6406C91.6139 15.5495 92.3236 15.4323 93.1699 15.2891C92.8704 15.5885 92.6361 15.862 92.4668 16.1094C92.3105 16.3438 92.1868 16.5456 92.0957 16.7148C91.9915 16.9232 91.9199 17.099 91.8809 17.2422C91.8548 17.3724 91.8809 17.6979 91.959 18.2188C92.0371 18.7396 92.1478 19.3581 92.291 20.0742C92.4342 20.7773 92.5905 21.5326 92.7598 22.3398C92.929 23.1341 93.0983 23.8828 93.2676 24.5859C93.4368 25.276 93.5866 25.8685 93.7168 26.3633C93.86 26.8451 93.9642 27.1315 94.0293 27.2227C94.2246 27.4961 94.3483 27.6784 94.4004 27.7695C94.4525 27.8477 94.5436 27.9193 94.6738 27.9844C94.7259 28.0104 94.8105 28.0495 94.9277 28.1016C95.0319 28.1536 95.1686 28.2188 95.3379 28.2969C95.5202 28.375 95.748 28.4661 96.0215 28.5703C95.5137 28.5964 95.0775 28.6159 94.7129 28.6289C94.3483 28.6289 94.0488 28.6354 93.8145 28.6484C93.541 28.6615 93.3066 28.6745 93.1113 28.6875C92.916 28.6875 92.6816 28.7005 92.4082 28.7266C92.1738 28.7526 91.8678 28.7786 91.4902 28.8047C91.1257 28.8307 90.696 28.8568 90.2012 28.8828C90.4616 28.7005 90.6699 28.5378 90.8262 28.3945C90.9954 28.2383 91.1257 28.1081 91.2168 28.0039C91.321 27.8737 91.3926 27.7565 91.4316 27.6523C91.4577 27.5352 91.4772 27.3594 91.4902 27.125C91.5033 26.9167 91.5033 26.6432 91.4902 26.3047C91.4772 25.9531 91.4447 25.4974 91.3926 24.9375L86.2559 25.4648C86.1257 25.6862 86.028 25.8815 85.9629 26.0508C85.8978 26.207 85.8522 26.3438 85.8262 26.4609C85.7871 26.6042 85.7741 26.7214 85.7871 26.8125C85.8132 26.9167 85.8587 27.0404 85.9238 27.1836C85.9889 27.3138 86.0801 27.4701 86.1973 27.6523C86.3275 27.8216 86.5163 28.0234 86.7637 28.2578C86.4382 28.2448 86.1061 28.2383 85.7676 28.2383C85.429 28.2383 85.1165 28.2448 84.8301 28.2578C84.4915 28.2708 84.1595 28.2839 83.834 28.2969C83.5085 28.3099 83.1374 28.3294 82.7207 28.3555C82.3691 28.3815 81.959 28.4141 81.4902 28.4531C81.0085 28.4792 80.4941 28.5182 79.9473 28.5703C80.2858 28.4141 80.5723 28.2578 80.8066 28.1016C81.041 27.9323 81.2363 27.776 81.3926 27.6328C81.5749 27.4766 81.7311 27.3268 81.8613 27.1836C81.9525 27.0534 82.1348 26.7539 82.4082 26.2852C82.6816 25.8034 82.9876 25.237 83.3262 24.5859C83.6777 23.9349 84.0423 23.2383 84.4199 22.4961C84.8105 21.7539 85.1621 21.0573 85.4746 20.4062C85.7871 19.7422 86.041 19.1693 86.2363 18.6875C86.4316 18.2057 86.5293 17.8932 86.5293 17.75C86.5033 17.5807 86.4382 17.3919 86.334 17.1836C86.2428 17.0013 86.0996 16.793 85.9043 16.5586C85.722 16.3242 85.4551 16.0638 85.1035 15.7773ZM91.1582 23.4922C91.0801 23.0365 91.0085 22.6458 90.9434 22.3203C90.8783 21.9818 90.8262 21.7018 90.7871 21.4805C90.735 21.2201 90.696 20.9922 90.6699 20.7969C90.6309 20.6146 90.5853 20.3802 90.5332 20.0938C90.4811 19.8464 90.416 19.5404 90.3379 19.1758C90.2728 18.7982 90.1882 18.349 90.084 17.8281C89.3418 19.3125 88.7624 20.4648 88.3457 21.2852C87.9421 22.0924 87.6491 22.6849 87.4668 23.0625C87.2454 23.5052 87.1217 23.7656 87.0957 23.8438L91.1582 23.4922ZM94.4199 14.7422C95.2923 14.8464 96.0475 14.9245 96.6855 14.9766C97.3236 15.0156 97.8509 15.0482 98.2676 15.0742C98.7493 15.1003 99.153 15.1068 99.4785 15.0938C99.8171 15.0807 100.279 15.0482 100.865 14.9961C101.36 14.957 102.011 14.9049 102.818 14.8398C103.626 14.7617 104.635 14.6576 105.846 14.5273C105.859 14.8268 105.865 15.1198 105.865 15.4062C105.878 15.6797 105.891 15.9206 105.904 16.1289C105.917 16.3763 105.924 16.6042 105.924 16.8125C105.924 17.0339 105.911 17.3138 105.885 17.6523C105.859 17.9388 105.813 18.3034 105.748 18.7461C105.696 19.1758 105.611 19.6901 105.494 20.2891C105.312 19.5859 105.136 19.0195 104.967 18.5898C104.798 18.1471 104.641 17.7956 104.498 17.5352C104.342 17.2357 104.186 17.0078 104.029 16.8516C103.86 16.7344 103.658 16.6367 103.424 16.5586C103.215 16.4935 102.949 16.4414 102.623 16.4023C102.311 16.3633 101.939 16.3698 101.51 16.4219C101.445 18.1406 101.399 19.5339 101.373 20.6016C101.347 21.6693 101.327 22.5026 101.314 23.1016C101.301 23.8177 101.295 24.332 101.295 24.6445C101.308 25.0872 101.38 25.5234 101.51 25.9531C101.614 26.3177 101.783 26.6953 102.018 27.0859C102.252 27.4766 102.59 27.8216 103.033 28.1211H100.65C100.429 28.1211 100.156 28.1341 99.8301 28.1602C99.5566 28.1862 99.2051 28.2122 98.7754 28.2383C98.3587 28.2643 97.8704 28.3099 97.3105 28.375C97.5059 28.0365 97.6621 27.7305 97.7793 27.457C97.8965 27.1836 97.9876 26.9492 98.0527 26.7539C98.1309 26.5195 98.1895 26.3112 98.2285 26.1289C98.2415 25.8685 98.2741 25.3411 98.3262 24.5469C98.3392 24.2214 98.3522 23.8177 98.3652 23.3359C98.3913 22.8542 98.4173 22.2812 98.4434 21.6172C98.4824 20.9531 98.515 20.1914 98.541 19.332C98.5801 18.4596 98.6191 17.4766 98.6582 16.3828C98.4238 16.3177 98.2025 16.3242 97.9941 16.4023C97.7858 16.4674 97.6035 16.5521 97.4473 16.6562C97.265 16.7865 97.0892 16.9427 96.9199 17.125C96.7507 17.3464 96.5618 17.6328 96.3535 17.9844C96.1712 18.2839 95.9629 18.681 95.7285 19.1758C95.4941 19.6576 95.2272 20.2565 94.9277 20.9727C94.8626 20.2174 94.8171 19.599 94.791 19.1172C94.765 18.6224 94.7454 18.2383 94.7324 17.9648C94.7194 17.6393 94.7129 17.3984 94.7129 17.2422C94.7129 17.099 94.6999 16.9102 94.6738 16.6758C94.6478 16.4805 94.6152 16.2266 94.5762 15.9141C94.5371 15.5885 94.485 15.1979 94.4199 14.7422ZM104.537 15.6602C105.449 15.6862 106.204 15.7057 106.803 15.7188C107.415 15.7188 107.91 15.7188 108.287 15.7188H109.322H115.143C115.169 15.9792 115.188 16.2331 115.201 16.4805C115.227 16.7148 115.24 16.9232 115.24 17.1055C115.24 17.3268 115.234 17.5286 115.221 17.7109C115.208 17.8932 115.188 18.0885 115.162 18.2969C115.136 18.4792 115.11 18.6745 115.084 18.8828C115.058 19.0911 115.012 19.306 114.947 19.5273C114.765 18.8242 114.518 18.2904 114.205 17.9258C113.906 17.5612 113.6 17.2943 113.287 17.125C112.923 16.9297 112.538 16.8255 112.135 16.8125C111.601 16.8385 111.184 16.8841 110.885 16.9492C110.585 17.0143 110.351 17.1055 110.182 17.2227C110.012 17.3398 109.882 17.4766 109.791 17.6328C109.713 17.776 109.628 17.9388 109.537 18.1211C109.459 18.2773 109.387 18.5182 109.322 18.8438C109.257 19.1172 109.192 19.4883 109.127 19.957C109.075 20.4258 109.016 21.0312 108.951 21.7734C109.303 21.6693 109.583 21.5716 109.791 21.4805C110.012 21.3893 110.188 21.3112 110.318 21.2461C110.462 21.168 110.566 21.0964 110.631 21.0312C110.683 20.9531 110.761 20.8099 110.865 20.6016C110.943 20.4193 111.048 20.1719 111.178 19.8594C111.321 19.5469 111.49 19.1172 111.686 18.5703C111.712 19.1693 111.725 19.6706 111.725 20.0742C111.725 20.4648 111.731 20.7839 111.744 21.0312C111.744 21.3177 111.751 21.5456 111.764 21.7148V22.457C111.764 22.7305 111.764 23.1016 111.764 23.5703C111.777 24.026 111.796 24.6055 111.822 25.3086C111.666 24.8268 111.523 24.4492 111.393 24.1758C111.275 23.8893 111.171 23.6745 111.08 23.5312C110.976 23.362 110.885 23.2448 110.807 23.1797C110.715 23.1536 110.592 23.1276 110.436 23.1016C110.292 23.0885 110.11 23.082 109.889 23.082C109.68 23.082 109.413 23.1146 109.088 23.1797C109.049 23.8958 109.042 24.4753 109.068 24.918C109.107 25.3477 109.16 25.6797 109.225 25.9141C109.29 26.1875 109.368 26.3828 109.459 26.5C109.576 26.6172 109.811 26.7148 110.162 26.793C110.514 26.8581 110.911 26.8841 111.354 26.8711C111.809 26.8451 112.271 26.7669 112.74 26.6367C113.209 26.5065 113.626 26.2917 113.99 25.9922C114.264 25.7448 114.557 25.4323 114.869 25.0547C115.13 24.7292 115.416 24.319 115.729 23.8242C116.054 23.3294 116.373 22.7305 116.686 22.0273C116.633 22.6133 116.594 23.1016 116.568 23.4922C116.555 23.8698 116.536 24.1758 116.51 24.4102C116.484 24.6836 116.464 24.8919 116.451 25.0352C116.451 25.1914 116.432 25.4128 116.393 25.6992C116.367 25.9466 116.321 26.2852 116.256 26.7148C116.204 27.1315 116.132 27.6654 116.041 28.3164C115.429 28.3294 114.85 28.3424 114.303 28.3555C113.756 28.3555 113.274 28.362 112.857 28.375C112.363 28.388 111.907 28.401 111.49 28.4141C111.061 28.4141 110.585 28.4336 110.064 28.4727C109.609 28.4987 109.068 28.5378 108.443 28.5898C107.831 28.6419 107.154 28.7135 106.412 28.8047C106.477 27.9193 106.523 27.0859 106.549 26.3047C106.588 25.5104 106.614 24.8138 106.627 24.2148C106.64 23.5117 106.64 22.8607 106.627 22.2617C106.692 20.7643 106.666 19.5534 106.549 18.6289C106.432 17.7044 106.295 17.112 106.139 16.8516C106.061 16.7604 105.95 16.6497 105.807 16.5195C105.689 16.4154 105.527 16.2917 105.318 16.1484C105.11 16.0052 104.85 15.8424 104.537 15.6602Z" fill="white"/>
</svg>
