<svg width="171" height="56" viewBox="0 0 171 56" fill="none" xmlns="http://www.w3.org/2000/svg">
<rect width="171" height="55" transform="translate(0 0.5)" fill="black"/>
<rect width="171" height="55" transform="translate(0 0.5)" fill="white"/>
<path d="M31.4082 21.6602C32.3197 21.6862 33.0749 21.7057 33.6738 21.7188C34.2858 21.7188 34.7806 21.7188 35.1582 21.7188H36.1934H42.0137C42.0397 21.9792 42.0592 22.2331 42.0723 22.4805C42.0983 22.7148 42.1113 22.9232 42.1113 23.1055C42.1113 23.3268 42.1048 23.5286 42.0918 23.7109C42.0788 23.8932 42.0592 24.0885 42.0332 24.2969C42.0072 24.4792 41.9811 24.6745 41.9551 24.8828C41.929 25.0911 41.8835 25.306 41.8184 25.5273C41.6361 24.8242 41.3887 24.2904 41.0762 23.9258C40.7767 23.5612 40.4707 23.2943 40.1582 23.125C39.7936 22.9297 39.4095 22.8255 39.0059 22.8125C38.472 22.8385 38.0553 22.8841 37.7559 22.9492C37.4564 23.0143 37.222 23.1055 37.0527 23.2227C36.8835 23.3398 36.7533 23.4766 36.6621 23.6328C36.584 23.776 36.4993 23.9388 36.4082 24.1211C36.3301 24.2773 36.2585 24.5182 36.1934 24.8438C36.1283 25.1172 36.0632 25.4883 35.998 25.957C35.946 26.4258 35.8874 27.0312 35.8223 27.7734C36.1738 27.6693 36.4538 27.5716 36.6621 27.4805C36.8835 27.3893 37.0592 27.3112 37.1895 27.2461C37.3327 27.168 37.4368 27.0964 37.502 27.0312C37.554 26.9531 37.6322 26.8099 37.7363 26.6016C37.8145 26.4193 37.9186 26.1719 38.0488 25.8594C38.1921 25.5469 38.3613 25.1172 38.5566 24.5703C38.5827 25.1693 38.5957 25.6706 38.5957 26.0742C38.5957 26.4648 38.6022 26.7839 38.6152 27.0312C38.6152 27.3177 38.6217 27.5456 38.6348 27.7148V28.457C38.6348 28.7305 38.6348 29.1016 38.6348 29.5703C38.6478 30.026 38.6673 30.6055 38.6934 31.3086C38.5371 30.8268 38.3939 30.4492 38.2637 30.1758C38.1465 29.8893 38.0423 29.6745 37.9512 29.5312C37.847 29.362 37.7559 29.2448 37.6777 29.1797C37.5866 29.1536 37.4629 29.1276 37.3066 29.1016C37.1634 29.0885 36.9811 29.082 36.7598 29.082C36.5514 29.082 36.2845 29.1146 35.959 29.1797C35.9199 29.8958 35.9134 30.4753 35.9395 30.918C35.9785 31.3477 36.0306 31.6797 36.0957 31.9141C36.1608 32.1875 36.2389 32.3828 36.3301 32.5C36.4473 32.6172 36.6816 32.7148 37.0332 32.793C37.3848 32.8581 37.7819 32.8841 38.2246 32.8711C38.6803 32.8451 39.1426 32.7669 39.6113 32.6367C40.0801 32.5065 40.4967 32.2917 40.8613 31.9922C41.1348 31.7448 41.4277 31.4323 41.7402 31.0547C42.0007 30.7292 42.2871 30.319 42.5996 29.8242C42.9251 29.3294 43.2441 28.7305 43.5566 28.0273C43.5046 28.6133 43.4655 29.1016 43.4395 29.4922C43.4264 29.8698 43.4069 30.1758 43.3809 30.4102C43.3548 30.6836 43.3353 30.8919 43.3223 31.0352C43.3223 31.1914 43.3027 31.4128 43.2637 31.6992C43.2376 31.9466 43.1921 32.2852 43.127 32.7148C43.0749 33.1315 43.0033 33.6654 42.9121 34.3164C42.3001 34.3294 41.7207 34.3424 41.1738 34.3555C40.627 34.3555 40.1452 34.362 39.7285 34.375C39.2337 34.388 38.778 34.401 38.3613 34.4141C37.9316 34.4141 37.4564 34.4336 36.9355 34.4727C36.4798 34.4987 35.9395 34.5378 35.3145 34.5898C34.7025 34.6419 34.0254 34.7135 33.2832 34.8047C33.3483 33.9193 33.3939 33.0859 33.4199 32.3047C33.459 31.5104 33.485 30.8138 33.498 30.2148C33.5111 29.5117 33.5111 28.8607 33.498 28.2617C33.5632 26.7643 33.5371 25.5534 33.4199 24.6289C33.3027 23.7044 33.166 23.112 33.0098 22.8516C32.9316 22.7604 32.821 22.6497 32.6777 22.5195C32.5605 22.4154 32.3978 22.2917 32.1895 22.1484C31.9811 22.0052 31.7207 21.8424 31.4082 21.6602ZM41.6621 20.9766C42.5345 21.0156 43.2116 21.0352 43.6934 21.0352H44.416C44.6243 21.0352 44.8848 21.0286 45.1973 21.0156C45.4577 21.0026 45.7897 20.9961 46.1934 20.9961C46.597 20.9831 47.0788 20.9635 47.6387 20.9375C47.3783 21.1198 47.1699 21.2956 47.0137 21.4648C46.8574 21.6341 46.7337 21.7839 46.6426 21.9141C46.5384 22.0703 46.4668 22.2135 46.4277 22.3438C46.3366 22.6823 46.2975 23.1445 46.3105 23.7305C46.3366 24.3034 46.3952 24.9284 46.4863 25.6055C46.5775 26.2695 46.6882 26.9466 46.8184 27.6367C46.9486 28.3268 47.0788 28.9518 47.209 29.5117C47.3522 30.0716 47.4759 30.5339 47.5801 30.8984C47.6973 31.25 47.7819 31.4258 47.834 31.4258C47.8861 31.4258 47.9837 31.237 48.127 30.8594C48.2832 30.4818 48.459 30.0065 48.6543 29.4336C48.8496 28.8477 49.0514 28.2161 49.2598 27.5391C49.4681 26.849 49.6569 26.1979 49.8262 25.5859C50.0085 24.9609 50.1582 24.4271 50.2754 23.9844C50.3926 23.5286 50.4512 23.2487 50.4512 23.1445C50.4382 23.0013 50.3926 22.8516 50.3145 22.6953C50.2493 22.5521 50.1322 22.3893 49.9629 22.207C49.8066 22.0117 49.5853 21.7904 49.2988 21.543C49.7025 21.5299 50.0475 21.5169 50.334 21.5039C50.6335 21.4909 50.8874 21.4844 51.0957 21.4844H51.7012H54.8262C54.5007 21.7057 54.2207 21.9206 53.9863 22.1289C53.765 22.3372 53.5827 22.5326 53.4395 22.7148C53.2702 22.9232 53.127 23.1185 53.0098 23.3008C52.8796 23.5742 52.6647 24.1667 52.3652 25.0781C52.235 25.4688 52.0853 25.944 51.916 26.5039C51.7467 27.0638 51.5449 27.7344 51.3105 28.5156C51.0762 29.2969 50.8158 30.2018 50.5293 31.2305C50.2428 32.2461 49.9173 33.4049 49.5527 34.707L46.8379 35.0586C46.5124 34.043 46.2259 33.1185 45.9785 32.2852C45.7441 31.4388 45.5358 30.7161 45.3535 30.1172C45.1452 29.4141 44.9694 28.7826 44.8262 28.2227C44.6309 27.5456 44.4616 26.862 44.3184 26.1719C44.1882 25.4688 44.071 24.8372 43.9668 24.2773C43.8757 23.7044 43.791 23.2292 43.7129 22.8516C43.6348 22.474 43.5501 22.2526 43.459 22.1875C43.3809 22.1224 43.2637 22.0378 43.1074 21.9336C42.9642 21.8424 42.7819 21.7253 42.5605 21.582C42.3262 21.4258 42.0267 21.224 41.6621 20.9766ZM52.3262 21.6602C53.2376 21.6862 53.9928 21.7057 54.5918 21.7188C55.2038 21.7188 55.6986 21.7188 56.0762 21.7188H57.1113H62.9316C62.9577 21.9792 62.9772 22.2331 62.9902 22.4805C63.0163 22.7148 63.0293 22.9232 63.0293 23.1055C63.0293 23.3268 63.0228 23.5286 63.0098 23.7109C62.9967 23.8932 62.9772 24.0885 62.9512 24.2969C62.9251 24.4792 62.8991 24.6745 62.873 24.8828C62.847 25.0911 62.8014 25.306 62.7363 25.5273C62.554 24.8242 62.3066 24.2904 61.9941 23.9258C61.6947 23.5612 61.3887 23.2943 61.0762 23.125C60.7116 22.9297 60.3275 22.8255 59.9238 22.8125C59.39 22.8385 58.9733 22.8841 58.6738 22.9492C58.3743 23.0143 58.14 23.1055 57.9707 23.2227C57.8014 23.3398 57.6712 23.4766 57.5801 23.6328C57.502 23.776 57.4173 23.9388 57.3262 24.1211C57.248 24.2773 57.1764 24.5182 57.1113 24.8438C57.0462 25.1172 56.9811 25.4883 56.916 25.957C56.8639 26.4258 56.8053 27.0312 56.7402 27.7734C57.0918 27.6693 57.3717 27.5716 57.5801 27.4805C57.8014 27.3893 57.9772 27.3112 58.1074 27.2461C58.2507 27.168 58.3548 27.0964 58.4199 27.0312C58.472 26.9531 58.5501 26.8099 58.6543 26.6016C58.7324 26.4193 58.8366 26.1719 58.9668 25.8594C59.11 25.5469 59.2793 25.1172 59.4746 24.5703C59.5007 25.1693 59.5137 25.6706 59.5137 26.0742C59.5137 26.4648 59.5202 26.7839 59.5332 27.0312C59.5332 27.3177 59.5397 27.5456 59.5527 27.7148V28.457C59.5527 28.7305 59.5527 29.1016 59.5527 29.5703C59.5658 30.026 59.5853 30.6055 59.6113 31.3086C59.4551 30.8268 59.3118 30.4492 59.1816 30.1758C59.0645 29.8893 58.9603 29.6745 58.8691 29.5312C58.765 29.362 58.6738 29.2448 58.5957 29.1797C58.5046 29.1536 58.3809 29.1276 58.2246 29.1016C58.0814 29.0885 57.8991 29.082 57.6777 29.082C57.4694 29.082 57.2025 29.1146 56.877 29.1797C56.8379 29.8958 56.8314 30.4753 56.8574 30.918C56.8965 31.3477 56.9486 31.6797 57.0137 31.9141C57.0788 32.1875 57.1569 32.3828 57.248 32.5C57.3652 32.6172 57.5996 32.7148 57.9512 32.793C58.3027 32.8581 58.6999 32.8841 59.1426 32.8711C59.5983 32.8451 60.0605 32.7669 60.5293 32.6367C60.998 32.5065 61.4147 32.2917 61.7793 31.9922C62.0527 31.7448 62.3457 31.4323 62.6582 31.0547C62.9186 30.7292 63.2051 30.319 63.5176 29.8242C63.8431 29.3294 64.1621 28.7305 64.4746 28.0273C64.4225 28.6133 64.3835 29.1016 64.3574 29.4922C64.3444 29.8698 64.3249 30.1758 64.2988 30.4102C64.2728 30.6836 64.2533 30.8919 64.2402 31.0352C64.2402 31.1914 64.2207 31.4128 64.1816 31.6992C64.1556 31.9466 64.11 32.2852 64.0449 32.7148C63.9928 33.1315 63.9212 33.6654 63.8301 34.3164C63.2181 34.3294 62.6387 34.3424 62.0918 34.3555C61.5449 34.3555 61.0632 34.362 60.6465 34.375C60.1517 34.388 59.696 34.401 59.2793 34.4141C58.8496 34.4141 58.3743 34.4336 57.8535 34.4727C57.3978 34.4987 56.8574 34.5378 56.2324 34.5898C55.6204 34.6419 54.9434 34.7135 54.2012 34.8047C54.2663 33.9193 54.3118 33.0859 54.3379 32.3047C54.377 31.5104 54.403 30.8138 54.416 30.2148C54.429 29.5117 54.429 28.8607 54.416 28.2617C54.4811 26.7643 54.4551 25.5534 54.3379 24.6289C54.2207 23.7044 54.084 23.112 53.9277 22.8516C53.8496 22.7604 53.7389 22.6497 53.5957 22.5195C53.4785 22.4154 53.3158 22.2917 53.1074 22.1484C52.8991 22.0052 52.6387 21.8424 52.3262 21.6602ZM64.1816 21.1523C64.7676 21.2565 65.2493 21.3281 65.627 21.3672C66.0046 21.4062 66.3105 21.4388 66.5449 21.4648C66.8184 21.4909 67.0332 21.4974 67.1895 21.4844H67.7754C67.9837 21.4844 68.2441 21.4844 68.5566 21.4844C68.8822 21.4714 69.2858 21.4648 69.7676 21.4648C70.041 22.1029 70.2884 22.6888 70.5098 23.2227C70.7441 23.7565 70.9395 24.2122 71.0957 24.5898C71.278 25.0456 71.4473 25.4557 71.6035 25.8203C71.7858 26.276 71.9811 26.7773 72.1895 27.3242C72.3978 27.8711 72.5866 28.3854 72.7559 28.8672C72.9382 29.349 73.0879 29.7461 73.2051 30.0586C73.3223 30.3711 73.3809 30.5143 73.3809 30.4883C73.3809 30.4753 73.3874 30.3451 73.4004 30.0977C73.4134 29.8372 73.4264 29.5182 73.4395 29.1406C73.4525 28.75 73.4655 28.3268 73.4785 27.8711C73.5046 27.4023 73.5176 26.9531 73.5176 26.5234C73.5306 26.0807 73.5371 25.6771 73.5371 25.3125C73.5371 24.9479 73.5241 24.6745 73.498 24.4922C73.459 24.2708 73.3809 24.0169 73.2637 23.7305C73.1595 23.4831 73.0163 23.1901 72.834 22.8516C72.6517 22.5 72.3978 22.1029 72.0723 21.6602C72.6061 21.6732 73.0423 21.6797 73.3809 21.6797C73.7194 21.6797 73.9928 21.6797 74.2012 21.6797C74.4355 21.6797 74.6178 21.6732 74.748 21.6602C74.9173 21.6602 75.1257 21.6471 75.373 21.6211C75.5944 21.5951 75.8678 21.5755 76.1934 21.5625C76.5319 21.5365 76.9486 21.5039 77.4434 21.4648C77.1569 21.7253 76.929 21.9727 76.7598 22.207C76.5905 22.4414 76.4538 22.6497 76.3496 22.832C76.2324 23.0404 76.1543 23.2357 76.1152 23.418C76.0632 23.6523 76.0176 24.0365 75.9785 24.5703C75.9525 25.0911 75.9199 25.6771 75.8809 26.3281C75.8548 26.9792 75.8288 27.6562 75.8027 28.3594C75.7767 29.0625 75.7507 29.707 75.7246 30.293C75.7246 30.7357 75.7116 31.2109 75.6855 31.7188C75.6595 32.1484 75.6335 32.6367 75.6074 33.1836C75.5814 33.7174 75.5488 34.2578 75.5098 34.8047L73.7715 34.8438C73.2637 33.9453 72.834 33.1771 72.4824 32.5391C72.1439 31.888 71.8639 31.3542 71.6426 30.9375C71.3952 30.4557 71.1868 30.0521 71.0176 29.7266C70.8743 29.4141 70.6855 29.056 70.4512 28.6523C70.2559 28.3138 70.0085 27.8971 69.709 27.4023C69.4225 26.9076 69.0775 26.3411 68.6738 25.7031C68.6348 26.6016 68.6152 27.3698 68.6152 28.0078C68.6283 28.6328 68.6478 29.1536 68.6738 29.5703C68.7129 30.0521 68.7585 30.4557 68.8105 30.7812C68.8757 31.0938 68.9668 31.4453 69.084 31.8359C69.1882 32.1745 69.3118 32.5716 69.4551 33.0273C69.6113 33.4831 69.8001 33.9974 70.0215 34.5703C69.2533 34.5312 68.6803 34.5117 68.3027 34.5117H67.7168C67.5345 34.5117 67.2871 34.5312 66.9746 34.5703C66.7142 34.5964 66.3561 34.6354 65.9004 34.6875C65.4577 34.7396 64.9043 34.8112 64.2402 34.9023C64.5527 34.5247 64.8001 34.1797 64.9824 33.8672C65.1777 33.5417 65.3275 33.2682 65.4316 33.0469C65.5618 32.7865 65.653 32.5586 65.7051 32.3633C65.7441 32.1549 65.7702 31.7969 65.7832 31.2891C65.7962 30.7682 65.7962 30.1823 65.7832 29.5312C65.7832 28.8672 65.7702 28.1706 65.7441 27.4414C65.7311 26.7122 65.7116 26.0352 65.6855 25.4102C65.6595 24.7852 65.627 24.2513 65.5879 23.8086C65.5618 23.3659 65.5423 23.0924 65.5293 22.9883C65.4902 22.819 65.4121 22.6367 65.2949 22.4414C65.1908 22.2721 65.054 22.0833 64.8848 21.875C64.7155 21.6536 64.4811 21.4128 64.1816 21.1523ZM76.7598 20.7422C77.6322 20.8464 78.3874 20.9245 79.0254 20.9766C79.6634 21.0156 80.1908 21.0482 80.6074 21.0742C81.0892 21.1003 81.4928 21.1068 81.8184 21.0938C82.1569 21.0807 82.6191 21.0482 83.2051 20.9961C83.6999 20.957 84.3509 20.9049 85.1582 20.8398C85.9655 20.7617 86.9746 20.6576 88.1855 20.5273C88.1986 20.8268 88.2051 21.1198 88.2051 21.4062C88.2181 21.6797 88.2311 21.9206 88.2441 22.1289C88.2572 22.3763 88.2637 22.6042 88.2637 22.8125C88.2637 23.0339 88.2507 23.3138 88.2246 23.6523C88.1986 23.9388 88.153 24.3034 88.0879 24.7461C88.0358 25.1758 87.9512 25.6901 87.834 26.2891C87.6517 25.5859 87.4759 25.0195 87.3066 24.5898C87.1374 24.1471 86.9811 23.7956 86.8379 23.5352C86.6816 23.2357 86.5254 23.0078 86.3691 22.8516C86.1999 22.7344 85.998 22.6367 85.7637 22.5586C85.5553 22.4935 85.2884 22.4414 84.9629 22.4023C84.6504 22.3633 84.2793 22.3698 83.8496 22.4219C83.7845 24.1406 83.7389 25.5339 83.7129 26.6016C83.6868 27.6693 83.6673 28.5026 83.6543 29.1016C83.6413 29.8177 83.6348 30.332 83.6348 30.6445C83.6478 31.0872 83.7194 31.5234 83.8496 31.9531C83.9538 32.3177 84.123 32.6953 84.3574 33.0859C84.5918 33.4766 84.9303 33.8216 85.373 34.1211H82.9902C82.7689 34.1211 82.4954 34.1341 82.1699 34.1602C81.8965 34.1862 81.5449 34.2122 81.1152 34.2383C80.6986 34.2643 80.2103 34.3099 79.6504 34.375C79.8457 34.0365 80.002 33.7305 80.1191 33.457C80.2363 33.1836 80.3275 32.9492 80.3926 32.7539C80.4707 32.5195 80.5293 32.3112 80.5684 32.1289C80.5814 31.8685 80.6139 31.3411 80.666 30.5469C80.679 30.2214 80.6921 29.8177 80.7051 29.3359C80.7311 28.8542 80.7572 28.2812 80.7832 27.6172C80.8223 26.9531 80.8548 26.1914 80.8809 25.332C80.9199 24.4596 80.959 23.4766 80.998 22.3828C80.7637 22.3177 80.5423 22.3242 80.334 22.4023C80.1257 22.4674 79.9434 22.5521 79.7871 22.6562C79.6048 22.7865 79.429 22.9427 79.2598 23.125C79.0905 23.3464 78.9017 23.6328 78.6934 23.9844C78.5111 24.2839 78.3027 24.681 78.0684 25.1758C77.834 25.6576 77.5671 26.2565 77.2676 26.9727C77.2025 26.2174 77.1569 25.599 77.1309 25.1172C77.1048 24.6224 77.0853 24.2383 77.0723 23.9648C77.0592 23.6393 77.0527 23.3984 77.0527 23.2422C77.0527 23.099 77.0397 22.9102 77.0137 22.6758C76.9876 22.4805 76.9551 22.2266 76.916 21.9141C76.877 21.5885 76.8249 21.1979 76.7598 20.7422ZM87.5801 20.9961C87.9967 21.0091 88.3613 21.0156 88.6738 21.0156C88.9863 21.0026 89.2402 20.9961 89.4355 20.9961H90.002C90.1452 20.9831 90.321 20.9766 90.5293 20.9766C90.7116 20.9766 90.9329 20.9766 91.1934 20.9766C91.4538 20.9766 91.7533 20.9831 92.0918 20.9961C92.196 21.3607 92.3132 21.7188 92.4434 22.0703C92.5866 22.4089 92.7103 22.7148 92.8145 22.9883C92.9447 23.3138 93.0749 23.6198 93.2051 23.9062C93.3353 24.1927 93.4915 24.5378 93.6738 24.9414C93.8301 25.2799 94.0189 25.6966 94.2402 26.1914C94.4616 26.6732 94.722 27.2266 95.0215 27.8516C95.1647 27.4479 95.2949 27.0768 95.4121 26.7383C95.5423 26.3997 95.653 26.1068 95.7441 25.8594C95.8483 25.5729 95.9329 25.3125 95.998 25.0781C96.0632 24.8438 96.1348 24.5573 96.2129 24.2188C96.278 23.9323 96.3496 23.5872 96.4277 23.1836C96.5189 22.7799 96.61 22.3112 96.7012 21.7773C97.0788 21.7773 97.4173 21.7773 97.7168 21.7773C98.0163 21.7773 98.2767 21.7708 98.498 21.7578C98.7454 21.7578 98.9668 21.7513 99.1621 21.7383C99.3704 21.7383 99.6504 21.7253 100.002 21.6992C100.301 21.6732 100.699 21.6536 101.193 21.6406C101.701 21.6146 102.326 21.582 103.068 21.543C102.795 21.7383 102.574 21.9336 102.404 22.1289C102.248 22.3112 102.124 22.474 102.033 22.6172C101.929 22.7865 101.864 22.9492 101.838 23.1055C101.812 23.2357 101.786 23.5352 101.76 24.0039C101.747 24.4727 101.727 25.0326 101.701 25.6836C101.688 26.3216 101.675 27.0052 101.662 27.7344C101.662 28.4635 101.669 29.1536 101.682 29.8047C101.695 30.4557 101.714 31.0221 101.74 31.5039C101.779 31.9727 101.831 32.2721 101.896 32.4023C101.988 32.5586 102.111 32.7409 102.268 32.9492C102.411 33.1315 102.593 33.3398 102.814 33.5742C103.049 33.8086 103.355 34.069 103.732 34.3555C103.133 34.3815 102.632 34.401 102.229 34.4141C101.838 34.4271 101.512 34.4401 101.252 34.4531C100.952 34.4661 100.712 34.4727 100.529 34.4727C100.334 34.4727 100.067 34.4792 99.7285 34.4922C99.429 34.5052 99.0319 34.5247 98.5371 34.5508C98.0423 34.5638 97.4043 34.5898 96.623 34.6289C96.8053 34.4206 96.9746 34.2122 97.1309 34.0039C97.2871 33.7956 97.4173 33.6068 97.5215 33.4375C97.6517 33.2422 97.7624 33.0534 97.8535 32.8711C97.9447 32.6237 98.0163 32.1745 98.0684 31.5234C98.1204 30.9635 98.1595 30.1628 98.1855 29.1211C98.2116 28.0664 98.2116 26.6536 98.1855 24.8828C97.9382 25.2865 97.7168 25.6901 97.5215 26.0938C97.3392 26.4844 97.1764 26.8424 97.0332 27.168C96.877 27.5456 96.7337 27.9102 96.6035 28.2617C96.4733 28.6263 96.3366 29.0299 96.1934 29.4727C96.0632 29.8503 95.9069 30.2995 95.7246 30.8203C95.5553 31.3411 95.36 31.9141 95.1387 32.5391L94.3965 32.5781C94.2923 32.0573 94.1882 31.5885 94.084 31.1719C93.9798 30.7422 93.8757 30.3776 93.7715 30.0781C93.6543 29.7266 93.5371 29.4141 93.4199 29.1406C93.2897 28.8672 93.1465 28.5612 92.9902 28.2227C92.847 27.9362 92.6712 27.5977 92.4629 27.207C92.2676 26.8164 92.0397 26.3802 91.7793 25.8984C91.6491 27.2266 91.571 28.3073 91.5449 29.1406C91.5189 29.9609 91.5189 30.599 91.5449 31.0547C91.571 31.6016 91.61 31.9987 91.6621 32.2461C91.7402 32.4674 91.8639 32.7148 92.0332 32.9883C92.1764 33.2227 92.3717 33.5026 92.6191 33.8281C92.8796 34.1406 93.2116 34.4922 93.6152 34.8828C93.3288 34.8828 93.0293 34.8828 92.7168 34.8828C92.4043 34.8828 92.1178 34.8893 91.8574 34.9023C91.5449 34.9154 91.2389 34.9219 90.9395 34.9219C90.627 34.9349 90.2624 34.9544 89.8457 34.9805C89.4811 35.0065 89.0449 35.0326 88.5371 35.0586C88.0293 35.0846 87.4434 35.1302 86.7793 35.1953C87.0658 35.013 87.3001 34.8372 87.4824 34.668C87.6647 34.4857 87.8079 34.3229 87.9121 34.1797C88.0423 34.0104 88.14 33.8411 88.2051 33.6719C88.2441 33.5677 88.2767 33.3398 88.3027 32.9883C88.3418 32.6367 88.3743 32.207 88.4004 31.6992C88.4395 31.1914 88.4655 30.625 88.4785 30C88.5046 29.375 88.5241 28.7435 88.5371 28.1055C88.5632 27.4544 88.5827 26.8229 88.5957 26.2109C88.6087 25.5859 88.6152 25.026 88.6152 24.5312C88.6283 24.0234 88.6348 23.6003 88.6348 23.2617C88.6348 22.9232 88.6348 22.7083 88.6348 22.6172C88.5957 22.4219 88.5371 22.2266 88.459 22.0312C88.3939 21.862 88.2897 21.6862 88.1465 21.5039C88.0033 21.3216 87.8145 21.1523 87.5801 20.9961ZM106.604 21.7773C107.255 21.8164 107.801 21.849 108.244 21.875C108.7 21.888 109.077 21.901 109.377 21.9141C109.715 21.9271 110.002 21.9271 110.236 21.9141C110.471 21.901 110.79 21.8685 111.193 21.8164C111.532 21.7773 111.981 21.7188 112.541 21.6406C113.114 21.5495 113.824 21.4323 114.67 21.2891C114.37 21.5885 114.136 21.862 113.967 22.1094C113.811 22.3438 113.687 22.5456 113.596 22.7148C113.492 22.9232 113.42 23.099 113.381 23.2422C113.355 23.3724 113.381 23.6979 113.459 24.2188C113.537 24.7396 113.648 25.3581 113.791 26.0742C113.934 26.7773 114.09 27.5326 114.26 28.3398C114.429 29.1341 114.598 29.8828 114.768 30.5859C114.937 31.276 115.087 31.8685 115.217 32.3633C115.36 32.8451 115.464 33.1315 115.529 33.2227C115.725 33.4961 115.848 33.6784 115.9 33.7695C115.952 33.8477 116.044 33.9193 116.174 33.9844C116.226 34.0104 116.311 34.0495 116.428 34.1016C116.532 34.1536 116.669 34.2188 116.838 34.2969C117.02 34.375 117.248 34.4661 117.521 34.5703C117.014 34.5964 116.577 34.6159 116.213 34.6289C115.848 34.6289 115.549 34.6354 115.314 34.6484C115.041 34.6615 114.807 34.6745 114.611 34.6875C114.416 34.6875 114.182 34.7005 113.908 34.7266C113.674 34.7526 113.368 34.7786 112.99 34.8047C112.626 34.8307 112.196 34.8568 111.701 34.8828C111.962 34.7005 112.17 34.5378 112.326 34.3945C112.495 34.2383 112.626 34.1081 112.717 34.0039C112.821 33.8737 112.893 33.7565 112.932 33.6523C112.958 33.5352 112.977 33.3594 112.99 33.125C113.003 32.9167 113.003 32.6432 112.99 32.3047C112.977 31.9531 112.945 31.4974 112.893 30.9375L107.756 31.4648C107.626 31.6862 107.528 31.8815 107.463 32.0508C107.398 32.207 107.352 32.3438 107.326 32.4609C107.287 32.6042 107.274 32.7214 107.287 32.8125C107.313 32.9167 107.359 33.0404 107.424 33.1836C107.489 33.3138 107.58 33.4701 107.697 33.6523C107.827 33.8216 108.016 34.0234 108.264 34.2578C107.938 34.2448 107.606 34.2383 107.268 34.2383C106.929 34.2383 106.617 34.2448 106.33 34.2578C105.992 34.2708 105.66 34.2839 105.334 34.2969C105.008 34.3099 104.637 34.3294 104.221 34.3555C103.869 34.3815 103.459 34.4141 102.99 34.4531C102.508 34.4792 101.994 34.5182 101.447 34.5703C101.786 34.4141 102.072 34.2578 102.307 34.1016C102.541 33.9323 102.736 33.776 102.893 33.6328C103.075 33.4766 103.231 33.3268 103.361 33.1836C103.452 33.0534 103.635 32.7539 103.908 32.2852C104.182 31.8034 104.488 31.237 104.826 30.5859C105.178 29.9349 105.542 29.2383 105.92 28.4961C106.311 27.7539 106.662 27.0573 106.975 26.4062C107.287 25.7422 107.541 25.1693 107.736 24.6875C107.932 24.2057 108.029 23.8932 108.029 23.75C108.003 23.5807 107.938 23.3919 107.834 23.1836C107.743 23.0013 107.6 22.793 107.404 22.5586C107.222 22.3242 106.955 22.0638 106.604 21.7773ZM112.658 29.4922C112.58 29.0365 112.508 28.6458 112.443 28.3203C112.378 27.9818 112.326 27.7018 112.287 27.4805C112.235 27.2201 112.196 26.9922 112.17 26.7969C112.131 26.6146 112.085 26.3802 112.033 26.0938C111.981 25.8464 111.916 25.5404 111.838 25.1758C111.773 24.7982 111.688 24.349 111.584 23.8281C110.842 25.3125 110.262 26.4648 109.846 27.2852C109.442 28.0924 109.149 28.6849 108.967 29.0625C108.745 29.5052 108.622 29.7656 108.596 29.8438L112.658 29.4922ZM115.92 20.7422C116.792 20.8464 117.548 20.9245 118.186 20.9766C118.824 21.0156 119.351 21.0482 119.768 21.0742C120.249 21.1003 120.653 21.1068 120.979 21.0938C121.317 21.0807 121.779 21.0482 122.365 20.9961C122.86 20.957 123.511 20.9049 124.318 20.8398C125.126 20.7617 126.135 20.6576 127.346 20.5273C127.359 20.8268 127.365 21.1198 127.365 21.4062C127.378 21.6797 127.391 21.9206 127.404 22.1289C127.417 22.3763 127.424 22.6042 127.424 22.8125C127.424 23.0339 127.411 23.3138 127.385 23.6523C127.359 23.9388 127.313 24.3034 127.248 24.7461C127.196 25.1758 127.111 25.6901 126.994 26.2891C126.812 25.5859 126.636 25.0195 126.467 24.5898C126.298 24.1471 126.141 23.7956 125.998 23.5352C125.842 23.2357 125.686 23.0078 125.529 22.8516C125.36 22.7344 125.158 22.6367 124.924 22.5586C124.715 22.4935 124.449 22.4414 124.123 22.4023C123.811 22.3633 123.439 22.3698 123.01 22.4219C122.945 24.1406 122.899 25.5339 122.873 26.6016C122.847 27.6693 122.827 28.5026 122.814 29.1016C122.801 29.8177 122.795 30.332 122.795 30.6445C122.808 31.0872 122.88 31.5234 123.01 31.9531C123.114 32.3177 123.283 32.6953 123.518 33.0859C123.752 33.4766 124.09 33.8216 124.533 34.1211H122.15C121.929 34.1211 121.656 34.1341 121.33 34.1602C121.057 34.1862 120.705 34.2122 120.275 34.2383C119.859 34.2643 119.37 34.3099 118.811 34.375C119.006 34.0365 119.162 33.7305 119.279 33.457C119.396 33.1836 119.488 32.9492 119.553 32.7539C119.631 32.5195 119.689 32.3112 119.729 32.1289C119.742 31.8685 119.774 31.3411 119.826 30.5469C119.839 30.2214 119.852 29.8177 119.865 29.3359C119.891 28.8542 119.917 28.2812 119.943 27.6172C119.982 26.9531 120.015 26.1914 120.041 25.332C120.08 24.4596 120.119 23.4766 120.158 22.3828C119.924 22.3177 119.702 22.3242 119.494 22.4023C119.286 22.4674 119.104 22.5521 118.947 22.6562C118.765 22.7865 118.589 22.9427 118.42 23.125C118.251 23.3464 118.062 23.6328 117.854 23.9844C117.671 24.2839 117.463 24.681 117.229 25.1758C116.994 25.6576 116.727 26.2565 116.428 26.9727C116.363 26.2174 116.317 25.599 116.291 25.1172C116.265 24.6224 116.245 24.2383 116.232 23.9648C116.219 23.6393 116.213 23.3984 116.213 23.2422C116.213 23.099 116.2 22.9102 116.174 22.6758C116.148 22.4805 116.115 22.2266 116.076 21.9141C116.037 21.5885 115.985 21.1979 115.92 20.7422ZM126.037 21.6602C126.949 21.6862 127.704 21.7057 128.303 21.7188C128.915 21.7188 129.41 21.7188 129.787 21.7188H130.822H136.643C136.669 21.9792 136.688 22.2331 136.701 22.4805C136.727 22.7148 136.74 22.9232 136.74 23.1055C136.74 23.3268 136.734 23.5286 136.721 23.7109C136.708 23.8932 136.688 24.0885 136.662 24.2969C136.636 24.4792 136.61 24.6745 136.584 24.8828C136.558 25.0911 136.512 25.306 136.447 25.5273C136.265 24.8242 136.018 24.2904 135.705 23.9258C135.406 23.5612 135.1 23.2943 134.787 23.125C134.423 22.9297 134.038 22.8255 133.635 22.8125C133.101 22.8385 132.684 22.8841 132.385 22.9492C132.085 23.0143 131.851 23.1055 131.682 23.2227C131.512 23.3398 131.382 23.4766 131.291 23.6328C131.213 23.776 131.128 23.9388 131.037 24.1211C130.959 24.2773 130.887 24.5182 130.822 24.8438C130.757 25.1172 130.692 25.4883 130.627 25.957C130.575 26.4258 130.516 27.0312 130.451 27.7734C130.803 27.6693 131.083 27.5716 131.291 27.4805C131.512 27.3893 131.688 27.3112 131.818 27.2461C131.962 27.168 132.066 27.0964 132.131 27.0312C132.183 26.9531 132.261 26.8099 132.365 26.6016C132.443 26.4193 132.548 26.1719 132.678 25.8594C132.821 25.5469 132.99 25.1172 133.186 24.5703C133.212 25.1693 133.225 25.6706 133.225 26.0742C133.225 26.4648 133.231 26.7839 133.244 27.0312C133.244 27.3177 133.251 27.5456 133.264 27.7148V28.457C133.264 28.7305 133.264 29.1016 133.264 29.5703C133.277 30.026 133.296 30.6055 133.322 31.3086C133.166 30.8268 133.023 30.4492 132.893 30.1758C132.775 29.8893 132.671 29.6745 132.58 29.5312C132.476 29.362 132.385 29.2448 132.307 29.1797C132.215 29.1536 132.092 29.1276 131.936 29.1016C131.792 29.0885 131.61 29.082 131.389 29.082C131.18 29.082 130.913 29.1146 130.588 29.1797C130.549 29.8958 130.542 30.4753 130.568 30.918C130.607 31.3477 130.66 31.6797 130.725 31.9141C130.79 32.1875 130.868 32.3828 130.959 32.5C131.076 32.6172 131.311 32.7148 131.662 32.793C132.014 32.8581 132.411 32.8841 132.854 32.8711C133.309 32.8451 133.771 32.7669 134.24 32.6367C134.709 32.5065 135.126 32.2917 135.49 31.9922C135.764 31.7448 136.057 31.4323 136.369 31.0547C136.63 30.7292 136.916 30.319 137.229 29.8242C137.554 29.3294 137.873 28.7305 138.186 28.0273C138.133 28.6133 138.094 29.1016 138.068 29.4922C138.055 29.8698 138.036 30.1758 138.01 30.4102C137.984 30.6836 137.964 30.8919 137.951 31.0352C137.951 31.1914 137.932 31.4128 137.893 31.6992C137.867 31.9466 137.821 32.2852 137.756 32.7148C137.704 33.1315 137.632 33.6654 137.541 34.3164C136.929 34.3294 136.35 34.3424 135.803 34.3555C135.256 34.3555 134.774 34.362 134.357 34.375C133.863 34.388 133.407 34.401 132.99 34.4141C132.561 34.4141 132.085 34.4336 131.564 34.4727C131.109 34.4987 130.568 34.5378 129.943 34.5898C129.331 34.6419 128.654 34.7135 127.912 34.8047C127.977 33.9193 128.023 33.0859 128.049 32.3047C128.088 31.5104 128.114 30.8138 128.127 30.2148C128.14 29.5117 128.14 28.8607 128.127 28.2617C128.192 26.7643 128.166 25.5534 128.049 24.6289C127.932 23.7044 127.795 23.112 127.639 22.8516C127.561 22.7604 127.45 22.6497 127.307 22.5195C127.189 22.4154 127.027 22.2917 126.818 22.1484C126.61 22.0052 126.35 21.8424 126.037 21.6602Z" fill="black"/>
</svg>
