<svg width="49" height="48" viewBox="0 0 49 48" fill="none" xmlns="http://www.w3.org/2000/svg">
<path d="M0.5 24C0.5 10.7452 11.2452 0 24.5 0C37.7548 0 48.5 10.7452 48.5 24C48.5 37.2548 37.7548 48 24.5 48C11.2452 48 0.5 37.2548 0.5 24Z" fill="#55ACEE"/>
<path d="M23.7812 19.5059L23.8316 20.3364L22.9922 20.2347C19.9369 19.8449 17.2677 18.523 15.0013 16.3028L13.8934 15.2011L13.608 16.0146C13.0036 17.8281 13.3897 19.7432 14.6488 21.0313C15.3203 21.7431 15.1692 21.8448 14.0109 21.4211C13.608 21.2855 13.2554 21.1838 13.2219 21.2346C13.1044 21.3533 13.5073 22.8955 13.8262 23.5057C14.2627 24.3531 15.1524 25.1835 16.1261 25.675L16.9487 26.0648L15.975 26.0818C15.0349 26.0818 15.0013 26.0987 15.1021 26.4546C15.4378 27.5563 16.764 28.7257 18.2413 29.2341L19.2822 29.59L18.3756 30.1324C17.0326 30.912 15.4546 31.3526 13.8766 31.3865C13.1211 31.4035 12.5 31.4713 12.5 31.5221C12.5 31.6916 14.5481 32.6407 15.74 33.0135C19.3157 34.1152 23.563 33.6406 26.7526 31.7594C29.0189 30.4205 31.2852 27.7596 32.3428 25.1835C32.9136 23.8107 33.4844 21.3024 33.4844 20.0991C33.4844 19.3195 33.5347 19.2178 34.4748 18.2857C35.0288 17.7433 35.5492 17.1502 35.65 16.9807C35.8178 16.6587 35.8011 16.6587 34.9449 16.9468C33.518 17.4552 33.3165 17.3874 34.0216 16.6248C34.542 16.0824 35.1631 15.0994 35.1631 14.8113C35.1631 14.7605 34.9113 14.8452 34.6259 14.9978C34.3238 15.1672 33.6523 15.4215 33.1486 15.574L32.2421 15.8621L31.4195 15.3028C30.9663 14.9978 30.3283 14.6588 29.9926 14.5571C29.1364 14.3198 27.827 14.3537 27.0548 14.6249C24.9563 15.3876 23.6301 17.3535 23.7812 19.5059Z" fill="white"/>
</svg>
